<svg width="1064" height="933" fill="none" xmlns="http://www.w3.org/2000/svg"><path d="M0 9c24-214-16-358 152-270l334-30h552c94-134 446.09 136.8 468 330 116.69 72.57-284 590-524 590S736 731 638 783c-200 42-232 34-376-138-98-252-81-263.5-72-294C225.5 270 0 147 0 9Z" fill="#101010"/><circle cx="708.5" cy="175.5" r="4.5" fill="#A13333"/><circle cx="708.5" cy="175.5" r="4.5" fill="#A13333"/><circle cx="435.5" cy="266.5" r="4.5" fill="#A13333"/><circle cx="366.5" cy="351.5" r="4.5" fill="#A13333"/><circle cx="262.5" cy="284.5" r="4.5" fill="#A13333"/><circle cx="279.5" cy="251.5" r="4.5" fill="#A13333"/><circle cx="330.5" cy="238.5" r="4.5" fill="#A13333"/><circle cx="426.5" cy="182.5" r="4.5" fill="#A13333"/><circle cx="375.5" cy="182.5" r="4.5" fill="#A13333"/><circle cx="303.5" cy="404.5" r="4.5" fill="#A13333"/><circle cx="393.5" cy="461.5" r="4.5" fill="#A13333"/><circle cx="511.5" cy="437.5" r="4.5" fill="#A13333"/><circle cx="483.5" cy="335.5" r="4.5" fill="#A13333"/><circle cx="663.5" cy="288.5" r="4.5" fill="#A13333"/><circle cx="654.5" cy="498.5" r="4.5" fill="#A13333"/><circle cx="846.5" cy="461.5" r="4.5" fill="#A13333"/><circle cx="963.5" cy="407.5" r="4.5" fill="#A13333"/><circle cx="902.5" cy="513.5" r="4.5" fill="#A13333"/><circle cx="1016.5" cy="425.5" r="4.5" fill="#A13333"/><circle cx="1047.5" cy="533.5" r="4.5" fill="#A13333"/><circle cx="979.5" cy="275.5" r="4.5" fill="#A13333"/><circle cx="1015.5" cy="280.5" r="4.5" fill="#A13333"/><circle cx="569.5" cy="533.5" r="4.5" fill="#A13333"/><circle cx="487.5" cy="598.5" r="4.5" fill="#A13333"/><circle cx="824.5" cy="416.5" r="4.5" fill="#A13333"/><circle cx="915.5" cy="251.5" r="4.5" fill="#A13333"/><circle cx="790.5" cy="335.5" r="4.5" fill="#A13333"/><circle cx="868.5" cy="83.5" r="4.5" fill="#A13333"/><circle cx="658.5" cy="119.5" r="4.5" fill="#A13333"/><circle cx="607.5" cy="226.5" r="4.5" fill="#A13333"/><circle cx="557.5" cy="104.5" r="4.5" fill="#A13333"/><circle cx="598.5" cy="33.5" r="4.5" fill="#A13333"/><circle cx="487.5" cy="46.5" r="4.5" fill="#A13333"/><circle cx="677.5" cy="45.5" r="4.5" fill="#A13333"/><circle cx="806.5" cy="33.5" r="4.5" fill="#A13333"/><circle cx="398.5" cy="36.5" r="4.5" fill="#A13333"/><circle cx="607.5" cy="371.5" r="4.5" fill="#A13333"/><circle cx="650.5" cy="640.5" r="4.5" fill="#A13333"/><path d="m401.4 106.1-59.58 113.64L113.54 47.91 156.8-57.83 401.4 106.1Z" fill="#A13333"/><path d="m190 438-8-36 25 28.5h40L219 452l11.5 32-32.5-26h-35l27-20Z" fill="#4A84F5"/><path d="m226 663 54-82 10 128-64-46Z" fill="#6B3DB9"/><path d="m495 115 31 21h-39l-28 39v-45l-23-31 38 16 21-41v41Z" fill="#BE56E6" stroke="#000"/><circle cx="919" cy="462" r="31" fill="#38458E"/><circle cx="143.5" cy="93.5" r="67.5" fill="#6F81E0"/><path d="M0 10.86c24-214-16-358 152-270l334-30h552c94-134 446.09 136.8 468 330 116.69 72.58-284 590-524 590s-246 102-344 154c-200 42-232 34-376-138-98-252-81-263.5-72-294 35.5-81-190-204-190-342Z" fill="#101010"/><circle cx="708.5" cy="177.36" r="4.5" fill="#A13333"/><circle cx="708.5" cy="177.36" r="4.5" fill="#A13333"/><circle cx="435.5" cy="268.36" r="4.5" fill="#A13333"/><circle cx="366.5" cy="353.36" r="4.5" fill="#A13333"/><circle cx="262.5" cy="286.36" r="4.5" fill="#A13333"/><circle cx="279.5" cy="253.36" r="4.5" fill="#A13333"/><circle cx="330.5" cy="240.36" r="4.5" fill="#A13333"/><circle cx="426.5" cy="184.36" r="4.5" fill="#A13333"/><circle cx="375.5" cy="184.36" r="4.5" fill="#A13333"/><circle cx="303.5" cy="406.36" r="4.5" fill="#A13333"/><circle cx="393.5" cy="463.36" r="4.5" fill="#A13333"/><circle cx="511.5" cy="439.36" r="4.5" fill="#A13333"/><circle cx="483.5" cy="337.36" r="4.5" fill="#A13333"/><circle cx="663.5" cy="290.36" r="4.5" fill="#A13333"/><circle cx="654.5" cy="500.36" r="4.5" fill="#A13333"/><circle cx="846.5" cy="463.36" r="4.5" fill="#A13333"/><circle cx="963.5" cy="409.36" r="4.5" fill="#A13333"/><circle cx="902.5" cy="515.36" r="4.5" fill="#A13333"/><circle cx="1016.5" cy="427.36" r="4.5" fill="#A13333"/><circle cx="1047.5" cy="535.36" r="4.5" fill="#A13333"/><circle cx="979.5" cy="277.36" r="4.5" fill="#A13333"/><circle cx="1015.5" cy="282.36" r="4.5" fill="#A13333"/><circle cx="569.5" cy="535.36" r="4.5" fill="#A13333"/><circle cx="487.5" cy="600.36" r="4.5" fill="#A13333"/><circle cx="824.5" cy="418.36" r="4.5" fill="#A13333"/><circle cx="915.5" cy="253.36" r="4.5" fill="#A13333"/><circle cx="790.5" cy="337.36" r="4.5" fill="#A13333"/><circle cx="868.5" cy="85.36" r="4.5" fill="#A13333"/><circle cx="658.5" cy="121.36" r="4.5" fill="#A13333"/><circle cx="607.5" cy="228.36" r="4.5" fill="#A13333"/><circle cx="557.5" cy="106.36" r="4.5" fill="#A13333"/><circle cx="598.5" cy="35.36" r="4.5" fill="#A13333"/><circle cx="487.5" cy="48.36" r="4.5" fill="#A13333"/><circle cx="677.5" cy="47.36" r="4.5" fill="#A13333"/><circle cx="806.5" cy="35.36" r="4.5" fill="#A13333"/><circle cx="398.5" cy="38.36" r="4.5" fill="#A13333"/><circle cx="607.5" cy="373.36" r="4.5" fill="#A13333"/><circle cx="650.5" cy="642.36" r="4.5" fill="#A13333"/><path d="M401.4 107.97 341.83 221.6 113.54 49.77 156.8-55.97l244.6 163.94Z" fill="#A13333"/><path d="m190 439.86-8-36 25 28.5h40l-28 21.5 11.5 32-32.5-26h-35l27-20Z" fill="#4A84F5"/><path d="m226 664.86 54-82 10 128-64-46Z" fill="#6B3DB9"/><path d="m495 116.86 31 21h-39l-28 39v-45l-23-31 38 16 21-41v41Z" fill="#BE56E6" stroke="#000"/><circle cx="919" cy="463.86" r="31" fill="#38458E"/><circle cx="143.5" cy="95.36" r="67.5" fill="#6F81E0"/><path d="M0 10.86c24-214-16-358 152-270l334-30h552c94-134 446.09 136.8 468 330 116.69 72.58-284 590-524 590s-246 102-344 154c-200 42-232 34-376-138-98-252-81-263.5-72-294 35.5-81-190-204-190-342Z" fill="#101010"/><circle cx="708.5" cy="177.36" r="4.5" fill="#A13333"/><circle cx="708.5" cy="177.36" r="4.5" fill="#A13333"/><circle cx="435.5" cy="268.36" r="4.5" fill="#A13333"/><circle cx="366.5" cy="353.36" r="4.5" fill="#A13333"/><circle cx="262.5" cy="286.36" r="4.5" fill="#A13333"/><circle cx="279.5" cy="253.36" r="4.5" fill="#A13333"/><circle cx="330.5" cy="240.36" r="4.5" fill="#A13333"/><circle cx="426.5" cy="184.36" r="4.5" fill="#A13333"/><circle cx="375.5" cy="184.36" r="4.5" fill="#A13333"/><circle cx="303.5" cy="406.36" r="4.5" fill="#A13333"/><circle cx="393.5" cy="463.36" r="4.5" fill="#A13333"/><circle cx="511.5" cy="439.36" r="4.5" fill="#A13333"/><circle cx="732.5" cy="569.5" r="4.5" fill="#A13333"/><circle cx="866.5" cy="570.5" r="4.5" fill="#A13333"/><circle cx="923.5" cy="556.5" r="4.5" fill="#A13333"/><circle cx="994.5" cy="589.5" r="4.5" fill="#A13333"/><circle cx="724.5" cy="617.5" r="4.5" fill="#A13333"/><circle cx="762.5" cy="640.5" r="4.5" fill="#A13333"/><circle cx="521.5" cy="726.5" r="4.5" fill="#A13333"/><circle cx="593.5" cy="761.5" r="4.5" fill="#A13333"/><circle cx="483.5" cy="337.36" r="4.5" fill="#A13333"/><circle cx="663.5" cy="290.36" r="4.5" fill="#A13333"/><circle cx="654.5" cy="500.36" r="4.5" fill="#A13333"/><circle cx="846.5" cy="463.36" r="4.5" fill="#A13333"/><circle cx="963.5" cy="409.36" r="4.5" fill="#A13333"/><circle cx="902.5" cy="515.36" r="4.5" fill="#A13333"/><circle cx="1016.5" cy="427.36" r="4.5" fill="#A13333"/><circle cx="1047.5" cy="535.36" r="4.5" fill="#A13333"/><circle cx="979.5" cy="277.36" r="4.5" fill="#A13333"/><circle cx="1015.5" cy="282.36" r="4.5" fill="#A13333"/><circle cx="569.5" cy="535.36" r="4.5" fill="#A13333"/><circle cx="487.5" cy="600.36" r="4.5" fill="#A13333"/><circle cx="824.5" cy="418.36" r="4.5" fill="#A13333"/><circle cx="915.5" cy="253.36" r="4.5" fill="#A13333"/><circle cx="790.5" cy="337.36" r="4.5" fill="#A13333"/><circle cx="868.5" cy="85.36" r="4.5" fill="#A13333"/><circle cx="658.5" cy="121.36" r="4.5" fill="#A13333"/><circle cx="607.5" cy="228.36" r="4.5" fill="#A13333"/><circle cx="557.5" cy="106.36" r="4.5" fill="#A13333"/><circle cx="598.5" cy="35.36" r="4.5" fill="#A13333"/><circle cx="487.5" cy="48.36" r="4.5" fill="#A13333"/><circle cx="677.5" cy="47.36" r="4.5" fill="#A13333"/><circle cx="806.5" cy="35.36" r="4.5" fill="#A13333"/><circle cx="398.5" cy="38.36" r="4.5" fill="#A13333"/><circle cx="607.5" cy="373.36" r="4.5" fill="#A13333"/><circle cx="650.5" cy="642.36" r="4.5" fill="#A13333"/><path d="m182.62 147.47 9.14 87.08-80.19-192.1-11.04-83.34 82.09 188.36Z" fill="#FFACAC"/><path d="m190 439.86-8-36 25 28.5h40l-28 21.5 11.5 32-32.5-26h-35l27-20Z" fill="#4A84F5"/><path d="m822 611-8-36 25 28.5h40L851 625l11.5 32-32.5-26h-35l27-20Z" fill="#A13368"/><path d="m226 664.86 54-82 10 128-64-46Z" fill="#6B3DB9"/><path d="m495 116.86 31 21h-39l-28 39v-45l-23-31 38 16 21-41v41Z" fill="#BE56E6" stroke="#000"/><circle cx="919" cy="463.86" r="31" fill="#38458E"/><circle cx="143.5" cy="95.5" r="32.5" fill="#6F81E0"/><circle cx="344.5" cy="679.5" r="11.5" fill="#A13333"/><circle cx="332.5" cy="502.5" r="4.5" fill="#A13333"/><circle cx="332.5" cy="502.5" r="4.5" fill="#A13333"/><circle cx="389.5" cy="640.5" r="4.5" fill="#D23FCC"/><circle cx="332.5" cy="440.5" r="4.5" fill="#D23FCC"/><circle cx="483.5" cy="235.5" r="4.5" fill="#D23FCC"/><circle cx="309.5" cy="275.5" r="4.5" fill="#D23FCC"/><circle cx="242.5" cy="260.5" r="4.5" fill="#D23FCC"/><circle cx="239.5" cy="336.5" r="4.5" fill="#D23FCC"/><circle cx="258.5" cy="407.5" r="4.5" fill="#D23FCC"/><circle cx="323.5" cy="342.5" r="4.5" fill="#D23FCC"/><circle cx="753.5" cy="201.5" r="4.5" fill="#D23FCC"/><circle cx="824.5" cy="128.5" r="4.5" fill="#D23FCC"/><circle cx="524.5" cy="483.5" r="4.5" fill="#D23FCC"/><circle cx="619.5" cy="684.5" r="4.5" fill="#D23FCC"/><circle cx="622.5" cy="731.5" r="4.5" fill="#D23FCC"/><circle cx="546.5" cy="757.5" r="4.5" fill="#D23FCC"/><circle cx="691.5" cy="646.5" r="4.5" fill="#D23FCC"/><circle cx="675.5" cy="583.5" r="4.5" fill="#D23FCC"/><circle cx="770.5" cy="579.5" r="4.5" fill="#D23FCC"/><circle cx="735.5" cy="667.5" r="4.5" fill="#D23FCC"/><circle cx="929.5" cy="391.5" r="4.5" fill="#D23FCC"/><circle cx="999.5" cy="470.5" r="4.5" fill="#D23FCC"/><circle cx="1024.5" cy="511.5" r="4.5" fill="#D23FCC"/><circle cx="988.5" cy="502.5" r="4.5" fill="#D23FCC"/><circle cx="957.5" cy="577.5" r="4.5" fill="#D23FCC"/><circle cx="906.5" cy="597.5" r="4.5" fill="#D23FCC"/><circle cx="1027.5" cy="321.5" r="4.5" fill="#D23FCC"/><circle cx="978.5" cy="326.5" r="4.5" fill="#D23FCC"/><circle cx="954.5" cy="224.5" r="4.5" fill="#D23FCC"/><circle cx="1022.5" cy="182.5" r="4.5" fill="#D23FCC"/><circle cx="973.5" cy="133.5" r="4.5" fill="#D23FCC"/><circle cx="1024.5" cy="96.5" r="4.5" fill="#D23FCC"/><circle cx="794.5" cy="461.5" r="4.5" fill="#D23FCC"/><circle cx="598.5" cy="636.5" r="4.5" fill="#D23FCC"/><circle cx="654.5" cy="224.5" r="4.5" fill="#D23FCC"/><circle cx="505.5" cy="182.5" r="4.5" fill="#D23FCC"/><circle cx="234.5" cy="192.5" r="4.5" fill="#D23FCC"/><circle cx="50.5" cy="51.5" r="4.5" fill="#D23FCC"/><circle cx="184.5" cy="248.5" r="4.5" fill="#D23FCC"/><circle cx="717.5" cy="132.5" r="4.5" fill="#D23FCC"/><circle cx="836.5" cy="60.5" r="4.5" fill="#D23FCC"/><circle cx="802.5" cy="300.5" r="4.5" fill="#D23FCC"/><circle cx="756.5" cy="388.5" r="4.5" fill="#D23FCC"/><circle cx="589.5" cy="430.5" r="4.5" fill="#D23FCC"/><circle cx="1024.5" cy="405.5" r="4.5" fill="#D23FCC"/><circle cx="332.5" cy="609.5" r="4.5" fill="#A13333"/><circle cx="344.5" cy="554.5" r="4.5" fill="#A13333"/><circle cx="251.5" cy="159.5" r="4.5" fill="#A13333"/><circle cx="327.5" cy="151.5" r="4.5" fill="#A13333"/><circle cx="346.5" cy="109.5" r="4.5" fill="#A13333"/><circle cx="260.5" cy="118.5" r="4.5" fill="#A13333"/><circle cx="274.5" cy="79.5" r="4.5" fill="#A13333"/><circle cx="212.5" cy="91.5" r="4.5" fill="#A13333"/><circle cx="242.5" cy="27.5" r="4.5" fill="#A13333"/><circle cx="189.5" cy="37.5" r="4.5" fill="#A13333"/><circle cx="151.5" cy="17.5" r="4.5" fill="#A13333"/><circle cx="27.5" cy="21.5" r="4.5" fill="#A13333"/><circle cx="307.5" cy="474.5" r="4.5" fill="#A0FAE4"/><circle cx="307.5" cy="474.5" r="4.5" fill="#A0FAE4"/><circle cx="431" cy="400" r="6" fill="#A0FAE4"/><circle cx="934" cy="61" r="6" fill="#A0FAE4"/><circle cx="736" cy="487" r="6" fill="#A0FAE4"/><circle cx="1023" cy="237" r="6" fill="#A0FAE4"/><circle cx="946" cy="262" r="6" fill="#A0FAE4"/><circle cx="825" cy="214" r="6" fill="#A0FAE4"/><circle cx="940" cy="167" r="6" fill="#A0FAE4"/><circle cx="989" cy="388" r="6" fill="#A0FAE4"/><circle cx="875" cy="155" r="6" fill="#A0FAE4"/><circle cx="1021" cy="133" r="6" fill="#A0FAE4"/><circle cx="994" cy="90" r="6" fill="#A0FAE4"/><circle cx="944" cy="14" r="6" fill="#A0FAE4"/><circle cx="907" cy="346" r="6" fill="#A0FAE4"/><circle cx="580" cy="451" r="6" fill="#A0FAE4"/><circle cx="769" cy="253" r="6" fill="#A0FAE4"/><circle cx="1035" cy="445" r="6" fill="#A0FAE4"/><circle cx="961" cy="513" r="6" fill="#A0FAE4"/><circle cx="1027" cy="596" r="6" fill="#A0FAE4"/><circle cx="1006" cy="553" r="6" fill="#A0FAE4"/><circle cx="885" cy="566" r="6" fill="#A0FAE4"/><circle cx="771" cy="73" r="6" fill="#A0FAE4"/><circle cx="550" cy="308" r="6" fill="#A0FAE4"/><circle cx="558" cy="167" r="6" fill="#A0FAE4"/><circle cx="362" cy="265" r="6" fill="#A0FAE4"/><circle cx="427" cy="167" r="6" fill="#A0FAE4"/><circle cx="299" cy="204" r="6" fill="#A0FAE4"/><circle cx="452" cy="507" r="6" fill="#A0FAE4"/><circle cx="715" cy="402" r="6" fill="#A0FAE4"/><circle cx="562" cy="35" r="6" fill="#A0FAE4"/><circle cx="618" cy="584" r="6" fill="#A0FAE4"/><circle cx="574" cy="720" r="6" fill="#A0FAE4"/><circle cx="420" cy="620" r="6" fill="#A0FAE4"/><circle cx="229" cy="366" r="6" fill="#A0FAE4"/><circle cx="217" cy="225" r="6" fill="#A0FAE4"/><circle cx="46" cy="85" r="6" fill="#A0FAE4"/><circle cx="46" cy="85" r="6" fill="#A0FAE4"/><circle cx="232" cy="63" r="6" fill="#A0FAE4"/><circle cx="324" cy="78" r="6" fill="#A0FAE4"/><circle cx="289" cy="155" r="6" fill="#A0FAE4"/><circle cx="213" cy="136" r="6" fill="#A0FAE4"/><circle cx="184" cy="73" r="6" fill="#A0FAE4"/><circle cx="419" cy="100" r="6" fill="#A0FAE4"/><circle cx="552" cy="605" r="6" fill="#A0FAE4"/><circle cx="259" cy="561" r="6" fill="#A0FAE4"/><circle cx="382.5" cy="586.5" r="2.5" fill="#3C33A1"/><circle cx="391.5" cy="515.5" r="2.5" fill="#3C33A1"/><circle cx="474.5" cy="450.5" r="2.5" fill="#3C33A1"/><circle cx="361.5" cy="419.5" r="2.5" fill="#3C33A1"/><circle cx="279.5" cy="337.5" r="2.5" fill="#3C33A1"/><circle cx="325.5" cy="301.5" r="2.5" fill="#3C33A1"/><circle cx="219.5" cy="301.5" r="2.5" fill="#3C33A1"/><circle cx="258.5" cy="218.5" r="2.5" fill="#3C33A1"/><circle cx="202.5" cy="164.5" r="2.5" fill="#3C33A1"/><circle cx="138.5" cy="185.5" r="2.5" fill="#3C33A1"/><circle cx="105.5" cy="166.5" r="2.5" fill="#3C33A1"/><circle cx="57.5" cy="115.5" r="2.5" fill="#3C33A1"/><circle cx="85.5" cy="25.5" r="2.5" fill="#3C33A1"/><circle cx="370.5" cy="49.5" r="2.5" fill="#3C33A1"/><circle cx="309.5" cy="120.5" r="2.5" fill="#3C33A1"/><circle cx="246.5" cy="91.5" r="2.5" fill="#3C33A1"/><circle cx="234.5" cy="119.5" r="2.5" fill="#3C33A1"/><circle cx="274.5" cy="47.5" r="2.5" fill="#3C33A1"/><circle cx="208.5" cy="24.5" r="2.5" fill="#3C33A1"/><circle cx="151.5" cy="52.5" r="2.5" fill="#3C33A1"/><circle cx="87.5" cy="78.5" r="2.5" fill="#3C33A1"/><circle cx="100.5" cy="128.5" r="2.5" fill="#3C33A1"/><circle cx="457.5" cy="40.5" r="2.5" fill="#3C33A1"/><circle cx="405.5" cy="199.5" r="2.5" fill="#3C33A1"/><circle cx="413.5" cy="158.5" r="2.5" fill="#3C33A1"/><circle cx="396.5" cy="239.5" r="2.5" fill="#3C33A1"/><circle cx="373.5" cy="307.5" r="2.5" fill="#3C33A1"/><circle cx="442.5" cy="215.5" r="2.5" fill="#3C33A1"/><circle cx="416.5" cy="127.5" r="2.5" fill="#3C33A1"/><circle cx="325.5" cy="383.5" r="2.5" fill="#3C33A1"/><circle cx="320.5" cy="28.5" r="2.5" fill="#3C33A1"/><circle cx="353.5" cy="28.5" r="2.5" fill="#3C33A1"/><circle cx="420.5" cy="16.5" r="2.5" fill="#3C33A1"/><circle cx="433.5" cy="71.5" r="2.5" fill="#3C33A1"/><circle cx="512.5" cy="33.5" r="2.5" fill="#3C33A1"/><circle cx="496.5" cy="282.5" r="2.5" fill="#3C33A1"/><circle cx="418.5" cy="333.5" r="2.5" fill="#3C33A1"/><circle cx="305.5" cy="249.5" r="2.5" fill="#3C33A1"/><circle cx="276.5" cy="380.5" r="2.5" fill="#3C33A1"/><circle cx="549.5" cy="378.5" r="2.5" fill="#3C33A1"/><circle cx="605.5" cy="304.5" r="2.5" fill="#3C33A1"/><circle cx="541.5" cy="236.5" r="2.5" fill="#3C33A1"/><circle cx="639.5" cy="177.5" r="2.5" fill="#3C33A1"/><circle cx="617.5" cy="69.5" r="2.5" fill="#3C33A1"/><circle cx="518.5" cy="99.5" r="2.5" fill="#3C33A1"/><circle cx="541.5" cy="71.5" r="2.5" fill="#3C33A1"/><circle cx="591.5" cy="53.5" r="2.5" fill="#3C33A1"/><circle cx="603.5" cy="136.5" r="2.5" fill="#3C33A1"/><circle cx="651.5" cy="71.5" r="2.5" fill="#3C33A1"/><circle cx="622.5" cy="16.5" r="2.5" fill="#3C33A1"/><circle cx="552.5" cy="11.5" r="2.5" fill="#3C33A1"/><circle cx="469.5" cy="19.5" r="2.5" fill="#3C33A1"/><circle cx="286.5" cy="8.5" r="2.5" fill="#3C33A1"/><circle cx="712.5" cy="81.5" r="2.5" fill="#3C33A1"/><circle cx="779.5" cy="167.5" r="2.5" fill="#3C33A1"/><circle cx="727.5" cy="328.5" r="2.5" fill="#3C33A1"/><circle cx="706.5" cy="231.5" r="2.5" fill="#3C33A1"/><circle cx="658.5" cy="362.5" r="2.5" fill="#3C33A1"/><circle cx="654.5" cy="441.5" r="2.5" fill="#3C33A1"/><circle cx="986.5" cy="433.5" r="2.5" fill="#3C33A1"/><circle cx="1032.5" cy="381.5" r="2.5" fill="#3C33A1"/><circle cx="985.5" cy="526.5" r="2.5" fill="#3C33A1"/><circle cx="1040.5" cy="481.5" r="2.5" fill="#3C33A1"/><circle cx="1037.5" cy="577.5" r="2.5" fill="#3C33A1"/><circle cx="610.5" cy="531.5" r="2.5" fill="#3C33A1"/><circle cx="684.5" cy="534.5" r="2.5" fill="#3C33A1"/><circle cx="913.5" cy="540.5" r="2.5" fill="#3C33A1"/><circle cx="849.5" cy="355.5" r="2.5" fill="#3C33A1"/><circle cx="760.5" cy="428.5" r="2.5" fill="#3C33A1"/><circle cx="708.5" cy="585.5" r="2.5" fill="#3C33A1"/><circle cx="734.5" cy="643.5" r="2.5" fill="#3C33A1"/><circle cx="794.5" cy="644.5" r="2.5" fill="#3C33A1"/><circle cx="798.5" cy="556.5" r="2.5" fill="#3C33A1"/><circle cx="754.5" cy="528.5" r="2.5" fill="#3C33A1"/><circle cx="813.5" cy="502.5" r="2.5" fill="#3C33A1"/><circle cx="834.5" cy="545.5" r="2.5" fill="#3C33A1"/><circle cx="853.5" cy="501.5" r="2.5" fill="#3C33A1"/><circle cx="850.5" cy="582.5" r="2.5" fill="#3C33A1"/><circle cx="873.5" cy="543.5" r="2.5" fill="#3C33A1"/><circle cx="885.5" cy="592.5" r="2.5" fill="#3C33A1"/><circle cx="918.5" cy="572.5" r="2.5" fill="#3C33A1"/><circle cx="897.5" cy="624.5" r="2.5" fill="#3C33A1"/><circle cx="927.5" cy="610.5" r="2.5" fill="#3C33A1"/><circle cx="952.5" cy="619.5" r="2.5" fill="#3C33A1"/><circle cx="944.5" cy="590.5" r="2.5" fill="#3C33A1"/><circle cx="944.5" cy="556.5" r="2.5" fill="#3C33A1"/><circle cx="933.5" cy="526.5" r="2.5" fill="#3C33A1"/><circle cx="980.5" cy="558.5" r="2.5" fill="#3C33A1"/><circle cx="978.5" cy="599.5" r="2.5" fill="#3C33A1"/><circle cx="1006.5" cy="610.5" r="2.5" fill="#3C33A1"/><circle cx="1011.5" cy="573.5" r="2.5" fill="#3C33A1"/><circle cx="1022.5" cy="543.5" r="2.5" fill="#3C33A1"/><circle cx="587.5" cy="670.5" r="2.5" fill="#3C33A1"/><circle cx="478.5" cy="714.5" r="2.5" fill="#3C33A1"/><circle cx="386.5" cy="670.5" r="2.5" fill="#3C33A1"/><circle cx="387.5" cy="728.5" r="2.5" fill="#3C33A1"/><circle cx="838.5" cy="269.5" r="2.5" fill="#3C33A1"/><circle cx="838.5" cy="269.5" r="2.5" fill="#3C33A1"/><circle cx="841.5" cy="24.5" r="2.5" fill="#3C33A1"/><circle cx="653.5" cy="28.5" r="2.5" fill="#3C33A1"/><circle cx="750.5" cy="48.5" r="2.5" fill="#3C33A1"/><circle cx="822.5" cy="89.5" r="2.5" fill="#3C33A1"/><circle cx="868.5" cy="118.5" r="2.5" fill="#3C33A1"/><circle cx="906.5" cy="146.5" r="2.5" fill="#3C33A1"/><circle cx="944.5" cy="111.5" r="2.5" fill="#3C33A1"/><circle cx="901.5" cy="74.5" r="2.5" fill="#3C33A1"/><circle cx="895.5" cy="50.5" r="2.5" fill="#3C33A1"/><circle cx="896.5" cy="17.5" r="2.5" fill="#3C33A1"/><circle cx="870.5" cy="64.5" r="2.5" fill="#3C33A1"/><circle cx="805.5" cy="59.5" r="2.5" fill="#3C33A1"/><circle cx="793.5" cy="9.5" r="2.5" fill="#3C33A1"/><circle cx="712.5" cy="16.5" r="2.5" fill="#3C33A1"/><circle cx="872.5" cy="238.5" r="2.5" fill="#3C33A1"/><circle cx="880.5" cy="303.5" r="2.5" fill="#3C33A1"/><circle cx="979.5" cy="167.5" r="2.5" fill="#3C33A1"/><circle cx="982.5" cy="211.5" r="2.5" fill="#3C33A1"/><circle cx="994.5" cy="256.5" r="2.5" fill="#3C33A1"/><circle cx="1003.5" cy="352.5" r="2.5" fill="#3C33A1"/><circle cx="949.5" cy="360.5" r="2.5" fill="#3C33A1"/><circle cx="1000.5" cy="305.5" r="2.5" fill="#3C33A1"/><circle cx="1047.5" cy="273.5" r="2.5" fill="#3C33A1"/><circle cx="1042.5" cy="211.5" r="2.5" fill="#3C33A1"/><circle cx="1038.5" cy="152.5" r="2.5" fill="#3C33A1"/><circle cx="995.5" cy="113.5" r="2.5" fill="#3C33A1"/><circle cx="1042.5" cy="71.5" r="2.5" fill="#3C33A1"/><circle cx="965.5" cy="83.5" r="2.5" fill="#3C33A1"/><circle cx="1013.5" cy="58.5" r="2.5" fill="#3C33A1"/><circle cx="1003.5" cy="42.5" r="2.5" fill="#3C33A1"/><circle cx="987.5" cy="9.5" r="2.5" fill="#3C33A1"/><circle cx="1047.5" cy="23.5" r="2.5" fill="#3C33A1"/><circle cx="1051.5" cy="49.5" r="2.5" fill="#3C33A1"/><circle cx="1049.5" cy="117.5" r="2.5" fill="#3C33A1"/><circle cx="970.5" cy="40.5" r="2.5" fill="#3C33A1"/><circle cx="923.5" cy="26.5" r="2.5" fill="#3C33A1"/><circle cx="971.5" cy="19.5" r="2.5" fill="#3C33A1"/><circle cx="1018.5" cy="14.5" r="2.5" fill="#3C33A1"/><circle cx="1027.5" cy="32.5" r="2.5" fill="#3C33A1"/><circle cx="1061.5" cy="9.5" r="2.5" fill="#3C33A1"/><circle cx="930.5" cy="299.5" r="2.5" fill="#3C33A1"/><circle cx="870.5" cy="195.5" r="2.5" fill="#3C33A1"/><circle cx="925.5" cy="108.5" r="2.5" fill="#3C33A1"/><circle cx="875.5" cy="31.5" r="2.5" fill="#3C33A1"/><circle cx="755.5" cy="14.5" r="2.5" fill="#3C33A1"/><circle cx="457.5" cy="607.5" r="2.5" fill="#3C33A1"/><circle cx="471.5" cy="677.5" r="2.5" fill="#A13368"/><circle cx="531.5" cy="665.5" r="2.5" fill="#A13333"/><circle cx="355.5" cy="719.5" r="2.5" fill="#3C33A1"/><circle cx="498.5" cy="549.5" r="2.5" fill="#3C33A1"/><circle cx="267.5" cy="450.5" r="2.5" fill="#3C33A1"/><circle cx="209.5" cy="407.5" r="4.5" fill="#A13333"/><circle cx="209.5" cy="407.5" r="4.5" fill="#A13333"/><circle cx="464.5" cy="757.5" r="4.5" fill="#A13333"/><ellipse cx="500.5" cy="569.75" rx="1.5" ry="1.75" fill="#000"/><ellipse cx="500.5" cy="569.75" rx="1.5" ry="1.75" fill="#000"/><circle cx="307.5" cy="569.5" r="2.5" fill="#3C33A1"/><circle cx="257.5" cy="517.5" r="2.5" fill="#A13368"/><path d="m405 818 15 115 33.5-115 98.5-17-98.5-28L420 669l-15 104-101 28 101 17Z" fill="#93F486"/><path d="M581.73 784c-6.97 0-12.64 2.29-12.78 5.13-4.11.88-6.95 2.74-6.95 4.89 0 1.32 1.07 2.53 2.86 3.47-.13.28-.2.56-.2.85 0 2.02 3.32 3.76 8.15 4.62 1.7 1.78 5.92 3.04 10.86 3.04 4.17 0 7.82-.9 9.88-2.25 0 0 0 0 0 0 .32.02.64.02.96.02 6.1 0 11.04-2.31 11.04-5.17 0-.48-.15-.95-.41-1.4 1.8-1 2.86-2.2 2.86-3.51 0-1.76-1.9-3.34-4.96-4.46-1.66-2.61-5.5-4.44-9.96-4.44-1.18 0-2.31.12-3.37.36a26.14 26.14 0 0 0-7.98-1.15h0Z" fill="url(#a)" stroke="url(#b)" stroke-width="1.25" stroke-linecap="round"/><path d="M482.02 741c-7.43 0-13.47 3.02-13.61 6.76-4.39 1.17-7.41 3.61-7.41 6.45 0 1.74 1.14 3.33 3.04 4.58-.14.36-.2.73-.2 1.11 0 2.66 3.53 4.97 8.68 6.09 1.8 2.35 6.3 4.01 11.56 4.01 4.44 0 8.33-1.18 10.53-2.96 0 0 0 0 0 0l1.02.03c6.5 0 11.76-3.06 11.76-6.82 0-.64-.16-1.26-.44-1.84 1.92-1.32 3.05-2.91 3.05-4.64 0-2.31-2.03-4.4-5.29-5.87-1.76-3.45-5.85-5.87-10.6-5.87-1.26 0-2.47.17-3.6.48a22.94 22.94 0 0 0-8.5-1.51h0Z" fill="url(#c)" stroke="url(#d)" stroke-width="1.25" stroke-linecap="round"/><path d="M576.17 719c-12.42 0-22.53 5.1-22.78 11.43-7.33 1.97-12.39 6.1-12.39 10.88 0 2.95 1.9 5.65 5.1 7.74a5.28 5.28 0 0 0-.36 1.89c0 4.5 5.91 8.38 14.54 10.28 3.01 3.97 10.54 6.78 19.35 6.78 7.43 0 13.94-2 17.6-5h.02c.56.03 1.13.04 1.7.04 10.87 0 19.68-5.16 19.68-11.52 0-1.08-.26-2.12-.73-3.1 3.21-2.23 5.1-4.93 5.1-7.84 0-3.9-3.4-7.43-8.85-9.93-2.95-5.82-9.79-9.9-17.75-9.9-2.1 0-4.12.28-6 .8a38.09 38.09 0 0 0-14.23-2.55h0Z" fill="url(#e)" stroke="url(#f)" stroke-width="1.25" stroke-linecap="round"/><path d="M650.33 691c-20.6 0-37.36 7.8-37.77 17.5-12.17 3-20.56 9.33-20.56 16.65 0 4.5 3.17 8.64 8.44 11.85-.38.94-.58 1.9-.58 2.88 0 6.89 9.81 12.84 24.1 15.74 5.02 6.08 17.5 10.38 32.1 10.38 12.33 0 23.12-3.06 29.21-7.66h.02c.93.05 1.87.07 2.82.07 18.03 0 32.64-7.9 32.64-17.64 0-1.64-.43-3.24-1.2-4.75 5.32-3.4 8.45-7.53 8.45-11.99 0-5.98-5.64-11.37-14.67-15.2-4.9-8.9-16.24-15.15-29.46-15.15-3.47 0-6.82.43-9.95 1.23-6.47-2.44-14.66-3.91-23.59-3.91h0Z" fill="url(#g)" stroke="url(#h)" stroke-width="1.25" stroke-linecap="round"/><defs><radialGradient id="a" cx="0" cy="0" r="1" gradientUnits="userSpaceOnUse" gradientTransform="matrix(29.24425 -2.05836 .95205 13.52634 581.9 791.2)"><stop stop-color="#F9FEFF"/><stop offset=".76" stop-color="#D3E7F0"/><stop offset="1" stop-color="#7E96AC"/></radialGradient><radialGradient id="c" cx="0" cy="0" r="1" gradientUnits="userSpaceOnUse" gradientTransform="matrix(31.15156 -2.7133 1.54895 17.78357 482.2 750.5)"><stop stop-color="#F9FEFF"/><stop offset=".76" stop-color="#D3E7F0"/><stop offset="1" stop-color="#7E96AC"/></radialGradient><radialGradient id="e" cx="0" cy="0" r="1" gradientUnits="userSpaceOnUse" gradientTransform="matrix(52.1311 -4.58454 2.64211 30.04365 576.48 735.05)"><stop stop-color="#F9FEFF"/><stop offset=".76" stop-color="#D3E7F0"/><stop offset="1" stop-color="#7E96AC"/></radialGradient><radialGradient id="g" cx="0" cy="0" r="1" gradientUnits="userSpaceOnUse" gradientTransform="matrix(86.46141 -7.01714 3.73637 46.03753 650.85 715.56)"><stop stop-color="#F9FEFF"/><stop offset=".76" stop-color="#D3E7F0"/><stop offset="1" stop-color="#7E96AC"/></radialGradient><linearGradient id="b" x1="585.87" y1="806.64" x2="582.95" y2="782.99" gradientUnits="userSpaceOnUse"><stop stop-color="#9AAEBB"/><stop offset="1" stop-color="#9AAEBB" stop-opacity=".19"/></linearGradient><linearGradient id="d" x1="486.43" y1="770.84" x2="481.71" y2="739.91" gradientUnits="userSpaceOnUse"><stop stop-color="#9AAEBB"/><stop offset="1" stop-color="#9AAEBB" stop-opacity=".19"/></linearGradient><linearGradient id="f" x1="583.55" y1="769.42" x2="575.5" y2="717.18" gradientUnits="userSpaceOnUse"><stop stop-color="#9AAEBB"/><stop offset="1" stop-color="#9AAEBB" stop-opacity=".19"/></linearGradient><linearGradient id="h" x1="662.57" y1="768.18" x2="651.16" y2="687.94" gradientUnits="userSpaceOnUse"><stop stop-color="#9AAEBB"/><stop offset="1" stop-color="#9AAEBB" stop-opacity=".19"/></linearGradient></defs></svg>