<svg xmlns="http://www.w3.org/2000/svg" viewBox="0 0 322.79 248.83" version="1.0"><defs><filter id="d" color-interpolation-filters="sRGB"><feGaussianBlur stdDeviation="1.17"/></filter><filter id="a" color-interpolation-filters="sRGB"><feGaussianBlur stdDeviation="3.82"/></filter><filter id="i" color-interpolation-filters="sRGB"><feGaussianBlur stdDeviation="2.36"/></filter><filter id="f" color-interpolation-filters="sRGB"><feGaussianBlur stdDeviation="2.35"/></filter><filter id="h" color-interpolation-filters="sRGB"><feGaussianBlur stdDeviation="2.35"/></filter><filter id="m" color-interpolation-filters="sRGB"><feGaussianBlur stdDeviation="3.6"/></filter><filter id="j" width="1.22" y="-.13" x="-.11" height="1.26" color-interpolation-filters="sRGB"><feGaussianBlur stdDeviation="5.87"/></filter><filter id="k" color-interpolation-filters="sRGB"><feGaussianBlur stdDeviation="3.55"/></filter><filter id="g" width="1.22" y="-.13" x="-.11" height="1.26" color-interpolation-filters="sRGB"><feGaussianBlur stdDeviation="5.88"/></filter><filter id="l" color-interpolation-filters="sRGB"><feGaussianBlur stdDeviation="3.53"/></filter><radialGradient id="c" gradientUnits="userSpaceOnUse" cy="394.64" cx="254.25" gradientTransform="matrix(1.2661 -.13912 .09975 .90778 -112.96 81.98)" r="146.59"><stop stop-color="#f9feff" offset="0"/><stop stop-color="#d3e7f0" offset=".76"/><stop stop-color="#7e96ac" offset="1"/></radialGradient><radialGradient id="e" gradientUnits="userSpaceOnUse" cy="672.9" cx="137.33" gradientTransform="matrix(1.602 0 0 1.1786 -81.83 -115.45)" r="63.58"><stop stop-color="#fff" offset="0"/><stop stop-color="#f1f9fd" offset=".45"/><stop stop-color="#e3f3fb" offset=".61"/><stop stop-color="#728e9d" offset="1"/></radialGradient><linearGradient id="b" y2="328.36" gradientUnits="userSpaceOnUse" y1="557.77" x2="229.3" x1="273.47"><stop stop-color="#9aaebb" offset="0"/><stop stop-color="#9aaebb" stop-opacity=".19" offset="1"/></linearGradient></defs><path opacity=".31" style="color:#000" d="M249.2 337.47c-44.23 0-80.21 22.67-81.1 50.84-26.12 8.75-44.12 27.13-44.12 48.41 0 13.1 6.8 25.1 18.13 34.44a28.76 28.76 0 0 0-1.25 8.37c0 20.01 21.06 37.31 51.75 45.75 10.74 17.66 37.53 30.16 68.9 30.16 26.44 0 49.61-8.89 62.69-22.25h.03c2 .12 4.02.19 6.06.19 38.7 0 70.07-22.95 70.07-51.25 0-4.8-.92-9.42-2.6-13.82 11.43-9.87 18.16-21.88 18.16-34.84 0-17.4-12.12-33.05-31.5-44.16-10.51-25.9-34.85-44.06-63.22-44.06a65.27 65.27 0 0 0-21.38 3.6c-13.88-7.12-31.46-11.38-50.62-11.38z" filter="url(#a)" stroke="#000" stroke-width="12.5" transform="translate(-108.54 -322.04)"/><path style="color:#000" d="M247.2 333.47c-44.23 0-80.21 22.67-81.1 50.84-26.12 8.75-44.12 27.13-44.12 48.41 0 13.1 6.8 25.1 18.13 34.44a28.76 28.76 0 0 0-1.25 8.37c0 20.01 21.06 37.31 51.75 45.75 10.74 17.66 37.53 30.16 68.9 30.16 26.44 0 49.61-8.89 62.69-22.25h.03c2 .12 4.02.19 6.06.19 38.7 0 70.07-22.95 70.07-51.25 0-4.8-.92-9.42-2.6-13.82 11.43-9.87 18.16-21.88 18.16-34.84 0-17.4-12.12-33.05-31.5-44.16-10.51-25.9-34.85-44.06-63.22-44.06a65.27 65.27 0 0 0-21.38 3.6c-13.88-7.12-31.46-11.38-50.62-11.38z" stroke="url(#b)" stroke-linecap="round" stroke-width="1.25" fill="url(#c)" transform="translate(-108.54 -322.04)"/><path opacity=".78" style="color:#000" d="M208.9 694.82c0 29.74-28.46 53.85-63.58 53.85s-63.58-24.11-63.58-53.85 28.47-53.85 63.58-53.85 63.58 24.11 63.58 53.85z" transform="translate(64.09 -346.16) scale(.75671)" filter="url(#d)" fill="url(#e)"/><path opacity=".78" style="color:#000" d="M208.9 694.82c0 29.74-28.46 53.85-63.58 53.85s-63.58-24.11-63.58-53.85 28.47-53.85 63.58-53.85 63.58 24.11 63.58 53.85z" transform="translate(-49.9 -549.73)" filter="url(#f)" fill="url(#e)"/><path opacity=".78" style="color:#000" d="M208.9 694.82c0 29.74-28.46 53.85-63.58 53.85s-63.58-24.11-63.58-53.85 28.47-53.85 63.58-53.85 63.58 24.11 63.58 53.85z" transform="matrix(.97167 0 0 .94562 5.85 -526.15)" filter="url(#g)" fill="url(#e)"/><path opacity=".78" style="color:#000" d="M208.9 694.82c0 29.74-28.46 53.85-63.58 53.85s-63.58-24.11-63.58-53.85 28.47-53.85 63.58-53.85 63.58 24.11 63.58 53.85z" transform="matrix(.97167 0 0 .94562 83.13 -505.29)" filter="url(#h)" fill="url(#e)"/><path opacity=".48" style="color:#000" d="M208.9 694.82c0 29.74-28.46 53.85-63.58 53.85s-63.58-24.11-63.58-53.85 28.47-53.85 63.58-53.85 63.58 24.11 63.58 53.85z" transform="matrix(.93796 0 0 .87006 -59.74 -491.21)" filter="url(#i)" fill="url(#e)"/><path opacity=".78" style="color:#000" d="M208.9 694.82c0 29.74-28.46 53.85-63.58 53.85s-63.58-24.11-63.58-53.85 28.47-53.85 63.58-53.85 63.58 24.11 63.58 53.85z" transform="translate(63.12 -421.1) scale(.75671)" filter="url(#j)" fill="url(#e)"/><path opacity=".27" style="color:#000" d="M208.9 694.82c0 29.74-28.46 53.85-63.58 53.85s-63.58-24.11-63.58-53.85 28.47-53.85 63.58-53.85 63.58 24.11 63.58 53.85z" transform="matrix(.60916 0 0 .53345 126.34 -311.06)" filter="url(#k)" fill="url(#e)"/><path opacity=".52" style="color:#000" d="M208.9 694.82c0 29.74-28.46 53.85-63.58 53.85s-63.58-24.11-63.58-53.85 28.47-53.85 63.58-53.85 63.58 24.11 63.58 53.85z" transform="matrix(.8985 0 0 .88045 112.7 -499.71)" filter="url(#l)" fill="url(#e)"/><path opacity=".55" style="color:#000" d="M208.9 694.82c0 29.74-28.46 53.85-63.58 53.85s-63.58-24.11-63.58-53.85 28.47-53.85 63.58-53.85 63.58 24.11 63.58 53.85z" transform="matrix(1.1204 0 0 .83454 -29.12 -520.09)" filter="url(#m)" fill="url(#e)"/></svg>