<svg width="48" height="18" fill="none" xmlns="http://www.w3.org/2000/svg"><path d="M30.34 10.32c0-3.64 3.3-6.61 7.47-6.9l-.7-.01C32.63 3.4 29 6.5 29 10.3c0 3.82 3.63 6.92 8.1 6.92.22 0 .5-.01.71-.03-4.17-.27-7.47-3.25-7.47-6.88Z" fill="#25F4EE"/><path d="m39.65 3.4-.71.03c4.18.28 7.47 3.25 7.47 6.89 0 3.63-3.3 6.6-7.47 6.88.21.02.5.03.71.03 4.48 0 8.11-3.1 8.11-6.91 0-3.82-3.63-6.91-8.1-6.91Z" fill="#FE2C55"/><path d="M38.38 13.68c-2.18 0-3.94-1.5-3.94-3.36 0-1.86 1.76-3.36 3.94-3.36 2.18 0 3.94 1.5 3.94 3.36 0 1.85-1.77 3.36-3.94 3.36Zm0-10.27c-4.48 0-8.1 3.09-8.1 6.9 0 3.82 3.62 6.92 8.1 6.92 4.47 0 8.1-3.1 8.1-6.91 0-3.82-3.63-6.91-8.1-6.91ZM5 0H0v17.03h5V0Z" fill="#000"/><path d="M0 17.03v-3.4h14l-1.4 3.4H0Z" fill="#000"/><path d="M0 17.03v-3.4h14l-1.4 3.4H0Z" stroke="#000"/><path fill-rule="evenodd" clip-rule="evenodd" d="M28.59 9.95c-.15-3.73-2-5.89-5.53-6.42-5.86-.9-10.14 3.27-8.82 8.58 1.18 4.74 8.46 6.75 13 3.6.5-.34.76-.52.78-.72.04-.25-.26-.53-.91-1.2l-1.05-1.05-.46.36c-2.26 1.73-6.64.83-6.64-1.36v-.24h9.69l-.06-1.55ZM19 8.61c.15-.9.73-1.63 1.52-1.92 1.7-.63 3.44.3 3.45 1.84v.54h-5.04L19 8.6Z" fill="#000"/></svg>