<svg width="743" height="511" viewBox="0 0 743 511" fill="none" xmlns="http://www.w3.org/2000/svg">
<path d="M527.116 338.735C483.853 413.668 382.129 435.927 299.903 388.455C217.676 340.982 186.093 241.754 229.353 166.824C272.616 91.8904 374.341 69.6308 456.567 117.103C538.793 164.576 570.377 263.804 527.116 338.735Z" fill="#E7C278"/>
<path fillRule="evenodd" clip-rule="evenodd" d="M210.879 246.367C216.549 369.457 356.559 450.787 467.559 394.187C373.369 365.337 281.019 312.687 210.879 246.367Z" fill="url(#paint0_radial)"/>
<path d="M386.039 93.9772C449.979 103.447 486.879 134.657 511.819 166.617C526.289 184.597 539.009 211.717 542.779 234.557C462.379 219.567 370.289 170.287 312.119 101.077C334.919 93.6973 360.069 90.4472 386.039 93.9772Z" fill="url(#paint1_radial)"/>
<path fillRule="evenodd" clip-rule="evenodd" d="M384.959 93.8472C419.879 132.877 468.709 159.817 513.609 168.917C476.779 121.347 432.089 99.4272 384.959 93.8472Z" fill="url(#paint2_linear)"/>
<path d="M210.739 232.267C287.959 304.027 376.359 357.967 479.489 387.397C475.919 389.967 471.919 391.907 467.879 394.017C371.829 365.057 283.979 314.397 210.819 245.787C210.549 240.207 210.619 237.247 210.739 232.267Z" fill="url(#paint3_radial)"/>
<path d="M257.049 133.437C324.019 207.457 454.179 285.767 542.179 298.187C541.589 300.637 540.939 303.047 540.289 305.467C451.629 293.227 318.929 214.007 251.579 138.777C253.389 136.987 255.169 135.187 257.049 133.437Z" fill="url(#paint4_radial)"/>
<path d="M527.116 338.735C483.853 413.668 382.129 435.927 299.903 388.455C217.676 340.982 186.093 241.754 229.353 166.824C272.616 91.8904 374.341 69.6308 456.567 117.103C538.793 164.576 570.377 263.804 527.116 338.735Z" fill="url(#paint5_radial)"/>
<path d="M275.913 118.631C149.666 58.5895 51.8324 32.2235 36.6506 58.5195C16.423 93.5549 150.563 208.928 336.1 316.046C521.636 423.165 688.622 481.646 708.85 446.611C723.654 420.969 655.617 352.276 545.498 275.344C545.475 275.923 545.357 276.488 545.334 277.067C651.14 351.395 716.302 417.514 701.97 442.337C682.183 476.609 518.828 419.394 337.42 314.659C156.012 209.924 24.7833 97.0627 44.5701 62.7906C59.2483 37.367 153.005 62.3761 274.462 119.704C274.966 119.372 275.41 118.963 275.913 118.631Z" fill="#ADA293"/>
<path d="M274.095 119.981C153.67 63.2382 60.7914 38.5074 46.2211 63.7441C26.5333 97.8448 157.048 210.107 337.6 314.347C518.151 418.588 680.646 475.494 700.334 441.393C714.558 416.756 650.094 351.228 545.292 277.5C545.042 280.45 544.71 283.364 544.347 286.332C629.599 348.233 680.509 401.979 668.399 422.956C650.631 453.73 504.033 402.388 341.085 308.311C178.137 214.233 60.3655 112.943 78.1331 82.1683C90.5898 60.5925 166.546 79.5206 266.959 125.145C269.261 123.317 271.682 121.641 274.095 119.981Z" fill="#ADA393"/>
<path d="M252.101 138.469C196.2 116.57 156.313 109.442 148.578 122.839C135.051 146.269 224.773 223.399 348.775 294.991C472.778 366.583 584.459 405.732 597.986 382.302C605.307 369.622 582.183 341.139 539.863 306.331C538.861 309.865 537.763 313.386 536.4 316.826C558.772 337.978 569.857 354.753 564.96 363.235C553.421 383.222 458.149 349.829 352.373 288.76C246.597 227.691 170.072 161.898 181.612 141.911C186.986 132.603 210.692 135.001 245.009 146.256C247.29 143.564 249.631 140.948 252.101 138.469Z" fill="#343423" fill-opacity="0.72973"/>
<path d="M265.431 126.174C169.204 82.8513 96.7749 65.1705 84.7545 85.9908C67.3871 116.072 182.518 215.101 341.805 307.064C501.092 399.028 644.411 449.215 661.779 419.133C673.439 398.936 625.189 347.597 544.084 288.226C543.149 294.343 541.648 300.362 539.863 306.331C582.183 341.14 605.307 369.622 597.986 382.303C584.459 405.732 472.778 366.584 348.775 294.991C224.773 223.399 135.051 146.269 148.578 122.839C156.313 109.442 196.201 116.571 252.101 138.469C256.38 134.117 260.765 129.939 265.431 126.174Z" fill="#D8D4C1"/>
<defs>
<radialGradient id="paint0_radial" cx="0" cy="0" r="1" gradientUnits="userSpaceOnUse" gradientTransform="translate(351.944 317.429) rotate(30.7578) scale(203.919 58.6578)">
<stop stop-color="#AC9877" stop-opacity="0"/>
<stop offset="1" stop-color="#AC9877"/>
</radialGradient>
<radialGradient id="paint1_radial" cx="0" cy="0" r="1" gradientUnits="userSpaceOnUse" gradientTransform="translate(444.428 140.554) rotate(29.7071) scale(176.095 55.3134)">
<stop stop-color="#B29B7A"/>
<stop offset="0.75" stop-color="#B29B7A"/>
<stop offset="1" stop-color="#B29B7A" stop-opacity="0"/>
</radialGradient>
<linearGradient id="paint2_linear" x1="458.499" y1="121.427" x2="442.199" y2="149.767" gradientUnits="userSpaceOnUse">
<stop stop-color="#797265"/>
<stop offset="1" stop-color="#797265" stop-opacity="0"/>
</linearGradient>
<radialGradient id="paint3_radial" cx="0" cy="0" r="1" gradientUnits="userSpaceOnUse" gradientTransform="translate(338.706 319.504) rotate(30.4154) scale(221.852 27.2181)">
<stop stop-color="#CCB986" stop-opacity="0"/>
<stop offset="0.5" stop-color="#C3AD70"/>
<stop offset="1" stop-color="#CCB986" stop-opacity="0"/>
</radialGradient>
<radialGradient id="paint4_radial" cx="0" cy="0" r="1" gradientUnits="userSpaceOnUse" gradientTransform="translate(396.888 219.451) rotate(28.83) scale(209.279 28.8395)">
<stop stop-color="#C4A361" stop-opacity="0"/>
<stop offset="0.5" stop-color="#C4A361"/>
<stop offset="1" stop-color="#C4A361" stop-opacity="0"/>
</radialGradient>
<radialGradient id="paint5_radial" cx="0" cy="0" r="1" gradientUnits="userSpaceOnUse" gradientTransform="translate(378.219 252.773) rotate(29.9997) scale(172.04 156.81)">
<stop stop-color="white" stop-opacity="0"/>
<stop offset="0.5" stop-color="#3F3F3F" stop-opacity="0.070588"/>
<stop offset="0.78" stop-opacity="0.3299"/>
<stop offset="0.93" stop-opacity="0.52157"/>
<stop offset="1" stop-opacity="0.65098"/>
</radialGradient>
</defs>
</svg>
