<svg xmlns="http://www.w3.org/2000/svg" viewBox="0 0 455.73 455.73" style="enable-background:new 0 0 455.731 455.731" xml:space="preserve"><path style="fill:#1bd741" d="M0 0h455.73v455.73H0z"/><path style="fill:#fff" d="m68.5 387.41 22.32-79.28a158.67 158.67 0 0 1-21.92-80.64c0-87.77 71.4-159.17 159.17-159.17s159.17 71.4 159.17 159.17c0 87.76-71.4 159.17-159.17 159.17-27.35 0-54.12-7-77.81-20.3l-81.77 21.05zm85.94-50 4.87 2.97a131.9 131.9 0 0 0 68.76 19.28c72.88 0 132.17-59.3 132.17-132.17S300.94 95.32 228.07 95.32 95.9 154.62 95.9 227.5c0 25.4 7.22 50.05 20.87 71.3l3.28 5.12-12.85 45.66 47.24-12.16z"/><path style="fill:#fff" d="m183.36 153.4-10.33-.56c-3.24-.17-6.42.91-8.88 3.04-5 4.35-13.01 12.76-15.47 23.7-3.67 16.34 2 36.34 16.67 56.34 14.67 20 42 52 90.33 65.67 15.58 4.4 27.83 1.43 37.28-4.61a33.34 33.34 0 0 0 14.5-21.17l1.66-7.7a5.35 5.35 0 0 0-3-5.98l-34.9-16.09a5.35 5.35 0 0 0-6.48 1.6l-13.7 17.76a3.92 3.92 0 0 1-4.4 1.3c-9.4-3.3-40.82-16.46-58.07-49.68a3.96 3.96 0 0 1 .5-4.42l13.1-15.15a5.35 5.35 0 0 0 .86-5.6L188 156.65a5.35 5.35 0 0 0-4.63-3.24z"/></svg>